name D:\school\WTK\thesis\model\3dpredictsim\Results\batch_windlass\Pog_s1_tmt_aCst_d05_k500_WL20_ig24_act_TTC.mot
datacolumns 128
datarows 4
range 0.00000000 0.03580171
endheader
time	pelvis_tilt	pelvis_list	pelvis_rotation	pelvis_tx	pelvis_ty	pelvis_tz	hip_flexion_l	hip_adduction_l	hip_rotation_l	hip_flexion_r	hip_adduction_r	hip_rotation_r	knee_angle_l	knee_angle_r	ankle_angle_l	ankle_angle_r	subtalar_angle_l	subtalar_angle_r	tmt_angle_l	tmt_angle_r	mtp_angle_l	mtp_angle_r	lumbar_extension	lumbar_bending	lumbar_rotation	arm_flex_l	arm_add_l	arm_rot_l	arm_flex_r	arm_add_r	arm_rot_r	elbow_flex_l	elbow_flex_r	pro_sup_l	pro_sup_r	glut_med1_l/activation	glut_med2_l/activation	glut_med3_l/activation	glut_min1_l/activation	glut_min2_l/activation	glut_min3_l/activation	semimem_l/activation	semiten_l/activation	bifemlh_l/activation	bifemsh_l/activation	sar_l/activation	add_long_l/activation	add_brev_l/activation	add_mag1_l/activation	add_mag2_l/activation	add_mag3_l/activation	tfl_l/activation	pect_l/activation	grac_l/activation	glut_max1_l/activation	glut_max2_l/activation	glut_max3_l/activation	iliacus_l/activation	psoas_l/activation	quad_fem_l/activation	gem_l/activation	peri_l/activation	rect_fem_l/activation	vas_med_l/activation	vas_int_l/activation	vas_lat_l/activation	med_gas_l/activation	lat_gas_l/activation	soleus_l/activation	tib_post_l/activation	flex_dig_l/activation	flex_hal_l/activation	tib_ant_l/activation	per_brev_l/activation	per_long_l/activation	per_tert_l/activation	ext_dig_l/activation	ext_hal_l/activation	ercspn_l/activation	intobl_l/activation	extobl_l/activation	glut_med1_r/activation	glut_med2_r/activation	glut_med3_r/activation	glut_min1_r/activation	glut_min2_r/activation	glut_min3_r/activation	semimem_r/activation	semiten_r/activation	bifemlh_r/activation	bifemsh_r/activation	sar_r/activation	add_long_r/activation	add_brev_r/activation	add_mag1_r/activation	add_mag2_r/activation	add_mag3_r/activation	tfl_r/activation	pect_r/activation	grac_r/activation	glut_max1_r/activation	glut_max2_r/activation	glut_max3_r/activation	iliacus_r/activation	psoas_r/activation	quad_fem_r/activation	gem_r/activation	peri_r/activation	rect_fem_r/activation	vas_med_r/activation	vas_int_r/activation	vas_lat_r/activation	med_gas_r/activation	lat_gas_r/activation	soleus_r/activation	tib_post_r/activation	flex_dig_r/activation	flex_hal_r/activation	tib_ant_r/activation	per_brev_r/activation	per_long_r/activation	per_tert_r/activation	ext_dig_r/activation	ext_hal_r/activation	ercspn_r/activation	intobl_r/activation	extobl_r/activation	
          0.00000000	         -2.92884462	         -0.16867004	          8.12683566	          0.00000000	          0.85949796	         -0.00107918	        -15.32824051	         -1.61000220	          9.76005211	         32.52978896	         -0.56930686	         -0.29381015	        -17.45937260	        -19.64153481	        -12.43520693	          0.62024187	         18.29128541	          6.48693038	         -6.44778970	         -0.05817606	         35.39995565	          0.47403465	          0.93445823	         -2.54492914	         -2.62112483	          3.34007955	        -13.47984615	         16.25423569	        -13.80400477	        -13.57607022	          9.48498519	         40.13224878	         19.44307905	         86.51662706	         86.51662706	          0.15281145	          0.06263641	          0.05366867	          0.18999775	          0.13036936	          0.08617414	          0.05001127	          0.05000127	          0.05000130	          0.05000077	          0.07518054	          0.11706102	          0.05043255	          0.05001307	          0.05000988	          0.05000712	          0.16022050	          0.05002989	          0.05000452	          0.05001888	          0.05001295	          0.05001353	          0.36325934	          0.57325889	          0.05000344	          0.05001469	          0.08670169	          0.28464500	          0.07575840	          0.08420451	          0.11840882	          0.13186821	          0.19083858	          0.05000003	          0.12514299	          0.13668019	          0.14846282	          0.13047528	          0.51719639	          0.38583633	          0.47092769	          0.40029495	          0.17234058	          0.05000004	          0.06581891	          0.05000035	          0.07911755	          0.05123599	          0.05994189	          0.05003371	          0.05001348	          0.05002963	          0.12385034	          0.07186682	          0.19800047	          0.05994562	          0.05000344	          0.06048760	          0.12512774	          0.10866265	          0.14534497	          0.13245680	          0.05000269	          0.05003353	          0.06152764	          0.05994859	          0.09601775	          0.12431234	          0.07156484	          0.07115417	          0.15219465	          0.05000555	          0.05001122	          0.05000032	          0.05000391	          0.07474278	          0.06597607	          0.08616218	          0.07189392	          0.07186786	          0.05520942	          0.05994707	          0.05995191	          0.45233499	          0.25573020	          0.15385453	          0.14582259	          0.45405578	          0.13834829	          0.05000010	          0.13314418	          0.13376333	
          0.01193390	         -2.92055895	         -0.10912950	          8.32433925	          0.01915079	          0.85795991	         -0.00083321	        -15.44578906	         -1.79329533	          9.58424921	         32.03744800	         -0.35138685	         -0.10443261	        -18.63620827	        -19.64892975	        -15.30373734	          0.18364911	         18.70795898	          6.02607991	         -7.06613660	         -0.08257639	         36.34278510	          0.62402975	          1.16982827	         -2.38143663	         -2.70084713	          2.99917773	        -13.52463488	         16.56165025	        -15.15961571	        -13.56156000	          9.57957577	         41.05315614	         19.39634973	         86.51662706	         86.51662706	          0.12745997	          0.05224530	          0.05000076	          0.15847709	          0.10874114	          0.07187936	          0.05000491	          0.05000052	          0.05000056	          0.05000339	          0.06270937	          0.18216698	          0.20450296	          0.10202147	          0.05001870	          0.05000136	          0.13363995	          0.09492426	          0.08002398	          0.05000374	          0.05000217	          0.05000161	          0.30299437	          0.47815522	          0.05967142	          0.05004119	          0.07232043	          0.23742217	          0.06319040	          0.07023537	          0.13458173	          0.10999116	          0.15917830	          0.05000015	          0.10438166	          0.11400490	          0.12383275	          0.32651602	          0.52284961	          0.36881472	          0.70534937	          0.54241878	          0.14374935	          0.05000004	          0.06067015	          0.08057715	          0.07283918	          0.05000213	          0.05000046	          0.05994186	          0.05003405	          0.05000199	          0.10330391	          0.05994418	          0.16515223	          0.05000075	          0.05000126	          0.08616155	          0.12384124	          0.24848708	          0.18593780	          0.14974072	          0.05000078	          0.05009551	          0.05132069	          0.05000421	          0.11839028	          0.15437837	          0.05969355	          0.05935088	          0.14167189	          0.05998251	          0.12660641	          0.06643379	          0.16698764	          0.16660515	          0.14929389	          0.07186782	          0.05996671	          0.05994495	          0.05000007	          0.05000239	          0.05000714	          0.57524780	          0.21330452	          0.12833000	          0.52429193	          0.55776142	          0.31612258	          0.05000007	          0.11105545	          0.11157188	
          0.02386780	         -2.90604999	         -0.06443923	          8.48868439	          0.03847104	          0.85594216	         -0.00058605	        -15.36756435	         -1.94507220	          9.41081180	         31.44264844	         -0.08932236	          0.14719252	        -20.23826767	        -20.33768302	        -17.85342933	         -0.26253756	         19.04072816	          5.53722607	         -7.27234758	         -0.12388246	         35.80836765	          0.81612864	          1.40975361	         -2.18843445	         -2.76697328	          2.59765214	        -13.59434329	         16.81089604	        -16.48709664	        -13.56480857	          9.77081047	         41.99171639	         19.31073798	         86.51662706	         86.51662706	          0.10631431	          0.05994867	          0.07186759	          0.13218572	          0.09070106	          0.05995600	          0.07002541	          0.05322942	          0.05994534	          0.05000030	          0.05230646	          0.19982260	          0.28990065	          0.17980540	          0.08766176	          0.06471243	          0.11146912	          0.07917777	          0.06792246	          0.05995419	          0.05995474	          0.05996674	          0.25272739	          0.44218577	          0.07932008	          0.07184823	          0.06032256	          0.19803363	          0.07187117	          0.11382821	          0.11225541	          0.09174353	          0.13277049	          0.05792316	          0.08706466	          0.09509149	          0.10328884	          0.28551580	          0.43614782	          0.32209530	          0.73327142	          0.70222035	          0.41320328	          0.06890017	          0.06721752	          0.07197355	          0.21181964	          0.05000048	          0.26730193	          0.05000039	          0.05000040	          0.05000076	          0.08616582	          0.05000026	          0.13775336	          0.05000041	          0.05710626	          0.07186808	          0.10329659	          0.20726915	          0.21218218	          0.17502375	          0.05000139	          0.05998095	          0.07195125	          0.05000081	          0.17519270	          0.17508715	          0.05994507	          0.05994473	          0.22823130	          0.05003302	          0.16784056	          0.05994498	          0.28463854	          0.27169945	          0.24436445	          0.05994492	          0.05001824	          0.05000006	          0.05000052	          0.05000106	          0.05000048	          0.58904057	          0.17791723	          0.10704003	          0.44865534	          0.46995808	          0.26367781	          0.05000003	          0.09263126	          0.09306201	
          0.03580171	         -2.88795665	         -0.03766093	          8.61547793	          0.05778561	          0.85367140	         -0.00035246	        -15.10534313	         -2.07673359	          9.24415295	         30.66563795	          0.18483021	          0.45015301	        -22.21138060	        -21.30975063	        -20.01775809	         -0.22008601	         19.26983295	          5.01357322	         -7.03710633	         -0.55935567	         33.50677193	          0.84215615	          1.64584506	         -1.96607422	         -2.81787106	          2.16760492	        -13.67368693	         17.01442375	        -17.73465015	        -13.58222698	         10.07897093	         42.89981168	         19.14252743	         86.51662706	         86.51662706	          0.18446503	          0.05000327	          0.05994473	          0.13831292	          0.07565396	          0.05000953	          0.10238867	          0.05000026	          0.05000068	          0.05000046	          0.05685697	          0.16667203	          0.24180609	          0.14997572	          0.07311913	          0.05397700	          0.09297669	          0.06604276	          0.05665429	          0.05000873	          0.05000870	          0.05001843	          0.21079979	          0.42555246	          0.06616084	          0.05992878	          0.05031508	          0.16517970	          0.05994796	          0.09494523	          0.10577616	          0.07652322	          0.11074378	          0.05000017	          0.07262058	          0.07931588	          0.08615321	          0.24563513	          0.37889502	          0.29164849	          0.62047134	          0.83416077	          0.34465255	          0.10612705	          0.05606608	          0.06003310	          0.31213096	          0.36263426	          0.53520328	          0.19855236	          0.23170120	          0.37352647	          0.07187104	          0.08131124	          0.11489998	          0.05299474	          0.05000078	          0.05994519	          0.08615969	          0.17288353	          0.17699399	          0.17687650	          0.05000042	          0.05003102	          0.06007686	          0.27821399	          0.25346661	          0.20719691	          0.05000026	          0.05000018	          0.19037265	          0.05994653	          0.27313814	          0.05000012	          0.28739619	          0.29131555	          0.26838589	          0.05000008	          0.05000015	          0.05000006	          0.13061064	          0.05000120	          0.05000147	          0.67298692	          0.14840063	          0.08928201	          0.37422350	          0.52372534	          0.40151773	          0.05000006	          0.07726367	          0.07762294	
